# xmcd
#
# Track frame offsets: 
#        150
#        12779
#        20552
#        29339
#        34675
#        42038
#        48198
#        61620
#        70571
#        82194
#        97054
#        105625
#        113144
#        120492
#        129916
#        138798
#        151942
#        162204
#        174952
#        191044
#        196302
#        205646
#        214081
#        222282
#        231973
#        239533
#        248668
#        254905
#
# Disc length: 3605 seconds
#
# Revision: 0
# Processed by: cddbd v1.5.2PL0 Copyright (c) Steve Scherf et al.
# Submitted via: ExactAudioCopyFreeDBPlugin 1.0
#
DISCID=780e131c
DTITLE=Mascato Youth Choir - Songs of Africa
DYEAR=2001
DGENRE=Worldmusic
TTITLE0=Tuaza Kokure
TTITLE1=Mase Daba Kha
TTITLE2=Endeni
TTITLE3=Jesus Oye Winya Tade Kwenya
TTITLE4=Imbilu Dangwa
TTITLE5=Ei Se Mamase
TTITLE6=Sese Mflumene
TTITLE7=Kaung'a Yachee
TTITLE8=Nama E Monate
TTITLE9=Ti 'Hanuba Oa
TTITLE10=Tambala Walira
TTITLE11=Mitzo, Mivo, Mide Zo
TTITLE12=Siyahamba (3 Excerpts From Ipitombi)
TTITLE13=Ipi Ntombia (Haya)
TTITLE14=Sesiya Hamba
TTITLE15=Mama Temob's Wedding
TTITLE16=Bawo Thixo Somandla
TTITLE17=Neti Du
TTITLE18=Vamuvamba
TTITLE19=Safari Ya Bamba
TTITLE20=Dumelang Ma Afrika
TTITLE21='Nabara 'Na
TTITLE22=Msokombia
TTITLE23=Etemba Lami
TTITLE24=Thina Ntho Sabanthu
TTITLE25=Ingazi Lemvana
TTITLE26=Namibia Land Of The Brave
TTITLE27=Let Us All Unite
EXTD=
EXTT0=
EXTT1=
EXTT2=
EXTT3=
EXTT4=
EXTT5=
EXTT6=
EXTT7=
EXTT8=
EXTT9=
EXTT10=
EXTT11=
EXTT12=
EXTT13=
EXTT14=
EXTT15=
EXTT16=
EXTT17=
EXTT18=
EXTT19=
EXTT20=
EXTT21=
EXTT22=
EXTT23=
EXTT24=
EXTT25=
EXTT26=
EXTT27=
PLAYORDER=
